<?xml version="1.0" encoding="utf-8"?>
<!-- Generator: Adobe Illustrator 22.1.0, SVG Export Plug-In . SVG Version: 6.00 Build 0)  -->
<svg version="1.1" id="cautionsign" xmlns="http://www.w3.org/2000/svg" xmlns:xlink="http://www.w3.org/1999/xlink" x="0px"
	 y="0px" viewBox="0 0 416.5 360.7" style="enable-background:new 0 0 416.5 360.7;" xml:space="preserve">
<style type="text/css">
	.st0{fill:#FFFF;stroke:#000000;stroke-width:6;stroke-miterlimit:10;}
	.st1{stroke:#FFFF;stroke-miterlimit:10;}

	.st0:hover{fill:#F4AE11;stroke:#000000;stroke-width:6;stroke-miterlimit:10;}
	.st1{stroke:#000000;stroke-miterlimit:10;}

</style>
<g id="triangle">
	<polygon id="triangle_1_" class="st0" points="208.2,6 309.8,181.8 411.3,357.7 208.2,357.7 5.2,357.7 106.7,181.8 	"/>
</g>
<g id="dot_1_">
	<path class="st1" d="M201.1,270.8H220c3.1,0,5.7,0.6,5.6,1.4l-0.6,26.9c0,0.8-2.5,1.4-5.6,1.4h-18.2c-3.1,0-5.6-0.6-5.6-1.4v-26.9
		C195.5,271.4,198,270.8,201.1,270.8z"/>
</g>
<g id="rectangle_1_">
	<path class="st1" d="M199.5,103.8h22.1c3.7,0,6.6,3,6.6,6.7l-0.7,130c0,3.6-3,6.6-6.6,6.6h-21.3c-3.7,0-6.6-3-6.6-6.6v-130
		C192.9,106.8,195.9,103.8,199.5,103.8z"/>
</g>
</svg>
