<?xml version="1.0" encoding="utf-8"?>
<!-- Generator: Adobe Illustrator 22.1.0, SVG Export Plug-In . SVG Version: 6.00 Build 0)  -->
<svg version="1.1" id="drinkinganddriving" xmlns="http://www.w3.org/2000/svg" xmlns:xlink="http://www.w3.org/1999/xlink" x="0px" y="0px"
	 viewBox="0 0 388.7 388.7" style="enable-background:new 0 0 388.7 388.7;" xml:space="preserve">
<style type="text/css">
	.st0{fill:#FFFF;stroke:#231F20;stroke-width:6;stroke-miterlimit:10;}
	.st1{fill:#FFFF;stroke:#231F20;stroke-width:6;stroke-miterlimit:10;}
	.st2{fill:#FFFF;stroke:#000000;stroke-miterlimit:10;}

	.st0:hover{fill:#FF0000;stroke:#231F20;stroke-width:6;stroke-miterlimit:10;}
	.st1:hover{fill:#FFFFFF;stroke:#231F20;stroke-width:6;stroke-miterlimit:10;}
	.st2:hover{fill:#3E663C;stroke:#000000;stroke-miterlimit:10;}

<defs>
	<script>
		let theDrinkingAndDriving = document.querySelector("#drinkinganddriving");

		function logThisDrinkingAndDriving() {
			console.log(this.id);
		}

		theDrinkingAndDriving.addEventListener("click", logThisDrinkingAndDriving);

	</script>
</defs>
</style>
<circle id="outerborder" class="st0" cx="194.3" cy="194.3" r="191.3"/>
<circle id="rim" class="st1" cx="190.4" cy="194.3" r="151.3"/>
<path id="glass" class="st1" d="M129.4,93.7h147.2c2.1,0,3.1,2.5,1.6,4l-68.7,68.7c-0.4,0.4-0.7,1-0.7,1.6v118.7
	c0,1.3,1,2.3,2.3,2.3h41.3c1.3,0,2.3,1,2.3,2.3V304c0,1.3-1,2.3-2.3,2.3h-95.7h-11c-1.3,0-2.3-1-2.3-2.3v-12c0-1.3,1-2.3,2.3-2.3
	h41.3c1.3,0,2.3-1,2.3-2.3V168.5c0-0.6-0.2-1.1-0.6-1.5l-61.3-69.5C126.3,96,127.4,93.7,129.4,93.7z"/>
<circle id="olive" class="st2" cx="211.7" cy="136.3" r="12"/>
<path id="line" class="st0" d="M307.2,281.9L59.4,129.7c-2.8-1.7-3.6-5.3-1.9-8.1l13.3-21.7c1.7-2.8,5.3-3.6,8.1-1.9l247.8,152.2
	c2.8,1.7,3.6,5.3,1.9,8.1l-13.3,21.7C313.6,282.7,309.9,283.6,307.2,281.9z"/>
</svg>
