<?xml version="1.0" encoding="utf-8"?>
<!-- Generator: Adobe Illustrator 22.1.0, SVG Export Plug-In . SVG Version: 6.00 Build 0)  -->
<svg version="1.1" id="gaspump" xmlns="http://www.w3.org/2000/svg" xmlns:xlink="http://www.w3.org/1999/xlink" x="0px" y="0px"
	 viewBox="0 0 80.6 109.9" style="enable-background:new 0 0 80.6 109.9;" xml:space="preserve">
<style type="text/css">
	.st0{fill:#FFFF;stroke:#000000;stroke-miterlimit:10;}
	.st1{fill:#FFFF;stroke:#000000;stroke-miterlimit:10;}
	.st2{fill:#FFFF;stroke:#000000;stroke-miterlimit:10;}
	.st3{fill:#FFFF;stroke:#000000;stroke-miterlimit:10;}
	.st4{fill:#FFFF;stroke:#000000;stroke-miterlimit:10;}

	.st0:hover {fill:#FF0000;stroke:#000000;stroke-miterlimit:10;}
	.st1:hover {fill:#CCCCCC;stroke:#000000;stroke-miterlimit:10;}
	.st2:hover {fill:#63411C;stroke:#000000;stroke-miterlimit:10;}
	.st3:hover {fill:#E0DEDE;stroke:#000000;stroke-miterlimit:10;}
	.st4:hover {fill:#F7C628;stroke:#000000;stroke-miterlimit:10;}

<defs>
	<script>
		let theGasPump = document.querySelector("#gaspump");

		function logThisGasPump() {
			console.log(this.id);
		}

		theGasPump.addEventListener("click", logThisGasPump);

	</script>
</defs>
</style>
<path id="pump" d="M60.4,56.4l5.3,7.2c3.3,26.5,2.7,33.2,2.7,33.2c3.7,3,7-3.3,7-3.3c-0.7-64.7-0.7-64.7-0.7-64.7s7.7,12,0,0
	S60.4,16,60.4,16v-5.3C78.8,25.7,79.8,32,79.8,32c-0.3,62.7,2.3,53.3-0.3,62.7c-2.7,9.3-13.7,5.7-13.7,5.7c-2-23.7-2.3-27-2.3-27
	c0-9.7-3-9.8-3-9.8V56.4z"/>
<polygon id="body" class="st0" points="60.3,100.6 60.3,2.4 52.3,2.4 52.3,0.5 10.5,0.5 10.5,2.4 4.5,2.4 4.5,100.6 0.5,100.6 
	0.5,109.4 64.3,109.4 64.3,100.6 "/>
<rect id="screen" x="9.1" y="17.9" class="st1" width="46.5" height="37"/>
<rect id="bronzegas" x="11.8" y="65.9" class="st2" width="10.8" height="17.5"/>
<rect id="silvergas" x="27" y="65.9" class="st3" width="10.8" height="17.5"/>
<rect id="goldgas" x="42" y="65.9" class="st4" width="10.8" height="17.5"/>
</svg>
