<?xml version="1.0" encoding="utf-8"?>
<!-- Generator: Adobe Illustrator 22.1.0, SVG Export Plug-In . SVG Version: 6.00 Build 0)  -->
<svg version="1.1" id="key" xmlns="http://www.w3.org/2000/svg" xmlns:xlink="http://www.w3.org/1999/xlink" x="0px" y="0px"
	 viewBox="0 0 136 197" style="enable-background:new 0 0 136 197;" xml:space="preserve">
<style type="text/css">
	.st0{fill:#FFFF;stroke:#231F20;stroke-width:6;stroke-miterlimit:10;}
	.st1{fill:#FFFF;stroke:#231F20;stroke-width:6;stroke-miterlimit:10;}
	.st2{fill:#FFFF;stroke:#231F20;stroke-width:6;stroke-miterlimit:10;}
	.st3{fill:#FFFF;stroke:#231F20;stroke-miterlimit:10;}

	.st0:hover {fill:#565656;stroke:#231F20;stroke-width:6;stroke-miterlimit:10;}
	.st1:hover {fill:#FFFFFF;stroke:#231F20;stroke-width:6;stroke-miterlimit:10;}
	.st2:hover {fill:#E5DBA8;stroke:#231F20;stroke-width:6;stroke-miterlimit:10;}
	.st3:hover {fill:#565656;stroke:#231F20;stroke-miterlimit:10;}

</style>
<path class="st0" d="M101,110l30.7-58.7c3.1-5.8,0.8-13.1-5.1-16.2L67.9,4.4c-5.8-3.1-13.1-0.8-16.2,5.1L21,68.1
	c-3.1,5.8-0.8,13.1,5.1,16.2L84.8,115C90.6,118.1,97.9,115.8,101,110z"/>
<path id="hole" class="st1" d="M99.5,54L67.8,37.4c-2.6-1.4-3.6-4.6-2.2-7.2l1.9-3.6c1.4-2.6,4.6-3.6,7.2-2.2L106.4,41
	c2.6,1.4,3.6,4.6,2.2,7.2l-1.9,3.6C105.4,54.4,102.1,55.4,99.5,54z"/>
<polygon id="metal" class="st2" points="42.1,95.6 3.8,166.2 3.1,191.7 25.2,178.8 22,168.5 33.7,166.5 29.8,153.5 45.5,153 
	39.8,135.5 52.1,139.5 50.8,117.8 70.3,109.9 "/>
<line id="line" class="st3" x1="45.2" y1="106.6" x2="11.9" y2="166.7"/>
</svg>
