<?xml version="1.0" encoding="utf-8"?>
<!-- Generator: Adobe Illustrator 22.1.0, SVG Export Plug-In . SVG Version: 6.00 Build 0)  -->
<svg version="1.1" id="seatbelt" xmlns="http://www.w3.org/2000/svg" xmlns:xlink="http://www.w3.org/1999/xlink" x="0px" y="0px"
	 viewBox="0 0 257.3 298.5" style="enable-background:new 0 0 257.3 298.5;" xml:space="preserve">
<style type="text/css">
	.st0{fill:#FFFF;stroke:#000000;stroke-width:4;stroke-miterlimit:10;}
	.st1{fill:#FFFF;stroke:#000000;stroke-width:4;stroke-miterlimit:10;}
	.st2{fill:#FFFF;stroke:#000000;stroke-width:4;stroke-miterlimit:10;}
	.st3{fill:#FFFF;stroke:#000000;stroke-width:4;stroke-miterlimit:10;}
	.st4{fill:#FFFF;stroke:#000000;stroke-width:4;stroke-miterlimit:10;}

	.st0:hover {fill:#777777;stroke:#000000;stroke-width:4;stroke-miterlimit:10;}
	.st1:hover {fill:#1C1C1C;stroke:#000000;stroke-width:4;stroke-miterlimit:10;}
	.st2:hover {fill:#FF0000;stroke:#000000;stroke-width:4;stroke-miterlimit:10;}
	.st3:hover {fill:#DBDBDB;stroke:#000000;stroke-width:4;stroke-miterlimit:10;}
	.st4:hover {fill:#FFFEFA;stroke:#000000;stroke-width:4;stroke-miterlimit:10;}

</style>
<rect id="bottombelt" x="18.1" y="212.2" transform="matrix(0.7874 0.6164 -0.6164 0.7874 163.4511 21.9641)" class="st0" width="63.6" height="71.5"/>
<rect id="block" x="63.1" y="156.8" transform="matrix(0.6164 -0.7874 0.7874 0.6164 -124.2688 145.4801)" class="st1" width="48.2" height="87"/>
<rect id="button" x="72.5" y="173.9" transform="matrix(0.6164 -0.7874 0.7874 0.6164 -124.2688 145.4801)" class="st2" width="29.3" height="52.9"/>
<rect id="topbelt" x="158.9" y="9" transform="matrix(0.7874 0.6164 -0.6164 0.7874 84.8604 -102.2766)" class="st0" width="63.6" height="125.7"/>
<path id="clicker" class="st3" d="M184.4,138.4l-59-46.2c-5.2-4.1-12.8-3.1-16.8,2.1l-7.2,9.2c-4.1,5.2-3.1,12.8,2.1,16.8l7,5.5
	c-8.5,12.5-6.6,29.1,4.7,37.9s27.9,6.7,37.9-4.5l9.3,7.3c5.2,4.1,12.8,3.1,16.8-2.1l7.2-9.2C190.5,150,189.6,142.5,184.4,138.4z"/>
<path id="hole" class="st4" d="M126.7,156.8l-8-6.3c-3.5-2.7-4.1-7.8-1.4-11.2l0,0c2.7-3.5,7.8-4.1,11.2-1.4l8,6.3
	c3.5,2.7,4.1,7.8,1.4,11.2l0,0C135.2,158.9,130.2,159.5,126.7,156.8z"/>
</svg>
