<?xml version="1.0" encoding="utf-8"?>
<!-- Generator: Adobe Illustrator 22.1.0, SVG Export Plug-In . SVG Version: 6.00 Build 0)  -->
<svg version="1.1" id="stopsign" xmlns="http://www.w3.org/2000/svg" xmlns:xlink="http://www.w3.org/1999/xlink" x="0px" y="0px"
	 viewBox="0 0 331.5 297.5" style="enable-background:new 0 0 331.5 297.5;" xml:space="preserve">
<style type="text/css">
	.st0{fill:#FFFF;stroke:#231F20;stroke-width:6;stroke-miterlimit:10;}
	.st1{fill:#FFFF;stroke:#231F20;stroke-width:3;stroke-miterlimit:10;}
	.st2{fill:none;stroke:#231F20;stroke-width:3;stroke-miterlimit:10;}

	.st0:hover {fill:#FF0000;stroke:#231F20;stroke-width:6;stroke-miterlimit:10;}
	.st1:hover {fill:#FFFF;stroke:#231F20;stroke-width:3;stroke-miterlimit:10;}
	.st2:hover {fill:none;stroke:#231F20;stroke-width:3;stroke-miterlimit:10;}
	
</style>
<polygon id="Octogon" class="st0" points="233.2,3 98.3,3 3,88.4 3,209.1 98.3,294.5 233.2,294.5 328.5,209.1 328.5,88.4 "/>
<path id="S" class="st1" d="M74,130.2h10c-1-15.5-10-22-10-22c-20.5-7.5-31.5,0-31.5,0c-13.5,12.5-9.5,27-9.5,27
	c9.5,15,21,16.5,21,16.5c16,3,19.5,9,19.5,9c5.5,3,2.5,12.5,2.5,12.5c-5.5,9-8.5,8.5-8.5,8.5c-9,6-16.5,0-16.5,0
	c-7-3-13.5-21-13.5-21h-8c-0.5,13.5,7,23.7,7,23.7c15.5,9.3,24,8.3,24,8.3c16-1,23.5-12,23.5-12c9.5-13.5-2.5-31.9-2.5-31.9
	c-16.5-8.1-22.9-8.6-22.9-8.6c-16.1-3.5-16.6-10-16.6-10c-0.5-10,8-14.5,8-14.5c12-3.5,21.5,2.5,21.5,2.5
	C76,125.7,74,130.2,74,130.2z"/>
<polygon id="T" class="st1" points="94,105.7 150,105.7 150,116.2 128,116.2 128,189.7 117.5,189.7 117.5,117.2 94,117.2 "/>
<g id="o">
	<path class="st1" d="M164,118c-10,18.5-4.5,49.5-4.5,49.5C172.5,196,185,192,185,192c31-0.5,35-21,35-21c7-32,0-46.5,0-46.5
		c-15.5-28.5-37-20.3-37-20.3C171,108,164,118,164,118z"/>
	<path class="st2" d="M173.4,130.2c-5.9,10.9-2.7,29.2-2.7,29.2c7.7,16.8,15,14.4,15,14.4c18.3-0.3,20.6-12.4,20.6-12.4
		c4.1-18.8,0-27.4,0-27.4c-9.1-16.8-21.8-12-21.8-12C177.5,124.3,173.4,130.2,173.4,130.2z"/>
</g>
<g id="p">
	<path class="st1" d="M234,105.7v86.6h9.5v-36.1h29c0,0,38.5-23.5,0-50.5H234z"/>
	<path class="st2" d="M244.5,114.7v31h24c0,0,24-14.7,0-31H244.5z"/>
</g>
</svg>
